<svg xmlns="http://www.w3.org/2000/svg" viewBox="0 0 720 420" role="img" aria-labelledby="title desc">
  <title id="title">SimRP retrieval prompting visual</title>
  <desc id="desc">Diagrammatic thumbnail for syntax and semantic similarity retrieval prompting.</desc>
  <rect width="720" height="420" rx="18" fill="#f7faf9"/>
  <rect x="24" y="24" width="672" height="372" rx="14" fill="#ffffff" stroke="#c9d8d2"/>
  <text x="360" y="56" text-anchor="middle" font-family="Arial, sans-serif" font-size="24" font-weight="800" fill="#111318">Similarity Retrieval Prompting</text>
  <g transform="translate(56 92)">
    <rect width="266" height="222" rx="12" fill="#fbfdfc" stroke="#d9e2df"/>
    <text x="133" y="30" text-anchor="middle" font-family="Arial, sans-serif" font-size="16" font-weight="700" fill="#303942">Syntactic retrieval</text>
    <g stroke="#075b55" stroke-width="3" fill="none">
      <path d="M133 58 V86"/><path d="M133 86 L78 126"/><path d="M133 86 L188 126"/><path d="M78 126 L54 164"/><path d="M78 126 L104 164"/><path d="M188 126 L162 164"/><path d="M188 126 L214 164"/>
    </g>
    <g fill="#e0f2ee" stroke="#0f766e" stroke-width="2">
      <rect x="110" y="45" width="46" height="28" rx="5"/><rect x="56" y="112" width="44" height="28" rx="5"/><rect x="166" y="112" width="44" height="28" rx="5"/><rect x="34" y="158" width="40" height="26" rx="5"/><rect x="88" y="158" width="40" height="26" rx="5"/><rect x="142" y="158" width="40" height="26" rx="5"/><rect x="198" y="158" width="40" height="26" rx="5"/>
    </g>
    <g font-family="Arial, sans-serif" font-size="13" font-weight="700" fill="#303942">
      <text x="133" y="64" text-anchor="middle">S</text><text x="78" y="130" text-anchor="middle">NP</text><text x="188" y="130" text-anchor="middle">VP</text><text x="54" y="176" text-anchor="middle">DT</text><text x="108" y="176" text-anchor="middle">NN</text><text x="162" y="176" text-anchor="middle">VB</text><text x="218" y="176" text-anchor="middle">JJ</text>
    </g>
  </g>
  <g transform="translate(382 96)">
    <rect width="280" height="90" rx="12" fill="#f4fbf8" stroke="#9fc7bf"/>
    <text x="24" y="34" font-family="Arial, sans-serif" font-size="16" font-weight="800" fill="#075b55">Retrieved case</text>
    <text x="24" y="64" font-family="Arial, sans-serif" font-size="15" fill="#303942">same syntax, similar sentiment</text>
    <rect x="30" y="124" width="220" height="54" rx="10" fill="#fff1e2" stroke="#f0a45d"/>
    <text x="140" y="157" text-anchor="middle" font-family="Arial, sans-serif" font-size="16" font-weight="700" fill="#303942">prompt construction</text>
    <path d="M140 186 V216" stroke="#075b55" stroke-width="4" marker-end="url(#arrow)"/>
    <rect x="18" y="222" width="248" height="58" rx="12" fill="#e0f2ee" stroke="#0f766e"/>
    <text x="142" y="258" text-anchor="middle" font-family="Arial, sans-serif" font-size="17" font-weight="800" fill="#075b55">sentiment quad prediction</text>
  </g>
  <text x="360" y="360" text-anchor="middle" font-family="Arial, sans-serif" font-size="18" font-weight="700" fill="#303942">Syntactic structure guides examples for aspect sentiment quad prediction</text>
  <defs><marker id="arrow" markerWidth="10" markerHeight="10" refX="8" refY="3" orient="auto"><path d="M0,0 L0,6 L9,3 z" fill="#075b55"/></marker></defs>
</svg>