<svg xmlns="http://www.w3.org/2000/svg" viewBox="0 0 720 420" role="img" aria-labelledby="title desc">
  <title id="title">Medical segmentation MoE visual</title>
  <desc id="desc">Diagrammatic thumbnail for prototypical mixture-of-experts and hardness-aware mining under mask imbalance.</desc>
  <defs>
    <marker id="arrow" markerWidth="10" markerHeight="10" refX="8" refY="3" orient="auto"><path d="M0,0 L0,6 L9,3 z" fill="#075b55"/></marker>
  </defs>
  <rect width="720" height="420" rx="18" fill="#f7faf9"/>
  <rect x="24" y="24" width="672" height="372" rx="14" fill="#ffffff" stroke="#c9d8d2"/>
  <text x="360" y="58" text-anchor="middle" font-family="Arial, sans-serif" font-size="25" font-weight="800" fill="#111318">Mask Imbalance Medical Segmentation</text>
  <g transform="translate(58 92)">
    <rect width="156" height="214" rx="12" fill="#fbfdfc" stroke="#d9e2df"/>
    <text x="78" y="30" text-anchor="middle" font-family="Arial, sans-serif" font-size="16" font-weight="800" fill="#075b55">Medical Image</text>
    <rect x="34" y="54" width="88" height="88" rx="12" fill="#eef6f3" stroke="#9fc7bf"/>
    <path d="M49 98 C62 72 92 72 106 98 C92 126 62 126 49 98 Z" fill="#ffffff" stroke="#7fb9ad" stroke-width="4"/>
    <path d="M70 100 C76 86 94 91 95 108 C86 118 74 114 70 100 Z" fill="#d98774" opacity="0.82"/>
    <g transform="translate(34 164)">
      <rect width="16" height="34" rx="4" fill="#0f766e"/>
      <rect x="28" y="14" width="16" height="20" rx="4" fill="#7fb9ad"/>
      <rect x="56" y="25" width="16" height="9" rx="4" fill="#d98774"/>
      <text x="44" y="58" text-anchor="middle" font-family="Arial, sans-serif" font-size="13" font-weight="700" fill="#303942">mask imbalance</text>
    </g>
  </g>
  <path d="M222 198 H274" stroke="#075b55" stroke-width="4" marker-end="url(#arrow)"/>
  <g transform="translate(286 86)">
    <rect width="178" height="226" rx="12" fill="#f4fbf8" stroke="#9fc7bf"/>
    <text x="89" y="30" text-anchor="middle" font-family="Arial, sans-serif" font-size="16" font-weight="800" fill="#075b55">Prototypical MoE</text>
    <g fill="#ffffff" stroke="#9fc7bf">
      <rect x="32" y="54" width="114" height="32" rx="8"/>
      <rect x="32" y="104" width="114" height="32" rx="8"/>
      <rect x="32" y="154" width="114" height="32" rx="8"/>
    </g>
    <g font-family="Arial, sans-serif" font-size="13" font-weight="700" fill="#303942">
      <text x="89" y="75" text-anchor="middle">expert A</text>
      <text x="89" y="125" text-anchor="middle">expert B</text>
      <text x="89" y="175" text-anchor="middle">expert C</text>
    </g>
    <g fill="#7fb9ad">
      <circle cx="54" cy="212" r="8"/>
      <circle cx="84" cy="204" r="8"/>
      <circle cx="116" cy="212" r="8"/>
    </g>
    <path d="M54 212 C74 190 98 190 116 212" fill="none" stroke="#075b55" stroke-width="3"/>
  </g>
  <path d="M470 198 H522" stroke="#075b55" stroke-width="4" marker-end="url(#arrow)"/>
  <g transform="translate(532 92)">
    <rect width="132" height="214" rx="12" fill="#fff9f0" stroke="#f0bf88"/>
    <text x="66" y="30" text-anchor="middle" font-family="Arial, sans-serif" font-size="16" font-weight="800" fill="#8f5a4e">Hardness Mining</text>
    <path d="M30 158 L54 90 L79 126 L104 58" fill="none" stroke="#d98774" stroke-width="8" stroke-linecap="round"/>
    <circle cx="54" cy="90" r="10" fill="#d98774" stroke="#8f5a4e" stroke-width="3"/>
    <circle cx="104" cy="58" r="10" fill="#d98774" stroke="#8f5a4e" stroke-width="3"/>
    <rect x="28" y="176" width="76" height="24" rx="12" fill="#ffffff" stroke="#d9e2df"/>
    <text x="66" y="193" text-anchor="middle" font-family="Arial, sans-serif" font-size="12" font-weight="700" fill="#303942">hard masks</text>
  </g>
  <text x="360" y="362" text-anchor="middle" font-family="Arial, sans-serif" font-size="18" font-weight="700" fill="#303942">ICL-inspired experts mine hard foreground masks under severe imbalance</text>
</svg>