<svg xmlns="http://www.w3.org/2000/svg" viewBox="0 0 720 420" role="img" aria-labelledby="title desc">
  <title id="title">Collaborative optimization research visual</title>
  <desc id="desc">Multiple expert branches share evidence through a collaborative optimization layer.</desc>
  <rect width="720" height="420" rx="18" fill="#f7faf9"/>
  <rect x="32" y="32" width="656" height="356" rx="16" fill="#ffffff" stroke="#c9d8d2"/>
  <text x="360" y="70" text-anchor="middle" font-family="Arial, sans-serif" font-size="24" font-weight="800" fill="#111318">Collaborative Expert Systems</text>
  <g transform="translate(86 122)">
    <rect x="0" y="72" width="116" height="74" rx="12" fill="#e0f2ee" stroke="#0f766e"/>
    <text x="58" y="116" text-anchor="middle" font-family="Arial, sans-serif" font-size="17" font-weight="800" fill="#075b55">input</text>
    <path d="M116 108 H178" stroke="#075b55" stroke-width="4" marker-end="url(#arrow)"/>
    <g transform="translate(192 0)">
      <rect width="132" height="54" rx="10" fill="#ffffff" stroke="#9fc7bf"/><rect y="82" width="132" height="54" rx="10" fill="#ffffff" stroke="#9fc7bf"/><rect y="164" width="132" height="54" rx="10" fill="#ffffff" stroke="#9fc7bf"/>
      <text x="66" y="34" text-anchor="middle" font-family="Arial, sans-serif" font-size="16" font-weight="800" fill="#303942">expert A</text><text x="66" y="116" text-anchor="middle" font-family="Arial, sans-serif" font-size="16" font-weight="800" fill="#303942">expert B</text><text x="66" y="198" text-anchor="middle" font-family="Arial, sans-serif" font-size="16" font-weight="800" fill="#303942">expert C</text>
    </g>
    <g fill="#7fb9ad"><rect x="356" y="18" width="14" height="34" rx="3"/><rect x="378" y="4" width="14" height="48" rx="3"/><rect x="400" y="26" width="14" height="26" rx="3"/><rect x="356" y="100" width="14" height="34" rx="3"/><rect x="378" y="82" width="14" height="52" rx="3"/><rect x="400" y="112" width="14" height="22" rx="3"/><rect x="356" y="182" width="14" height="36" rx="3"/><rect x="378" y="164" width="14" height="54" rx="3"/><rect x="400" y="196" width="14" height="22" rx="3"/></g>
    <path d="M426 28 C474 46 486 72 492 100 M426 110 H490 M426 194 C474 178 486 148 492 118" stroke="#075b55" stroke-width="4" fill="none"/>
    <rect x="502" y="70" width="126" height="78" rx="13" fill="#f4fbf8" stroke="#9fc7bf"/>
    <text x="565" y="103" text-anchor="middle" font-family="Arial, sans-serif" font-size="16" font-weight="800" fill="#075b55">shared</text>
    <text x="565" y="126" text-anchor="middle" font-family="Arial, sans-serif" font-size="16" font-weight="800" fill="#075b55">evidence</text>
  </g>
  <text x="360" y="360" text-anchor="middle" font-family="Arial, sans-serif" font-size="18" font-weight="700" fill="#303942">Experts remain specialized while exchanging useful evidence</text>
  <defs><marker id="arrow" markerWidth="10" markerHeight="10" refX="8" refY="3" orient="auto"><path d="M0,0 L0,6 L9,3 z" fill="#075b55"/></marker></defs>
</svg>