<svg xmlns="http://www.w3.org/2000/svg" viewBox="0 0 720 420" role="img" aria-labelledby="title desc">
  <title id="title">Long-tailed recognition research visual</title>
  <desc id="desc">Long-tail class distribution with calibrated decision regions.</desc>
  <rect width="720" height="420" rx="18" fill="#f7faf9"/>
  <rect x="32" y="32" width="656" height="356" rx="16" fill="#ffffff" stroke="#c9d8d2"/>
  <text x="360" y="70" text-anchor="middle" font-family="Arial, sans-serif" font-size="24" font-weight="800" fill="#111318">Long-Tailed Recognition</text>
  <g transform="translate(82 110)">
    <path d="M0 224 H236" stroke="#303942" stroke-width="3"/>
    <path d="M0 224 V24" stroke="#303942" stroke-width="3"/>
    <g fill="#0f766e"><rect x="28" y="52" width="30" height="172" rx="5"/><rect x="72" y="86" width="30" height="138" rx="5"/><rect x="116" y="124" width="30" height="100" rx="5"/><rect x="160" y="166" width="30" height="58" rx="5"/><rect x="204" y="194" width="30" height="30" rx="5"/></g>
    <text x="118" y="262" text-anchor="middle" font-family="Arial, sans-serif" font-size="16" font-weight="700" fill="#303942">head to tail classes</text>
  </g>
  <g transform="translate(392 118)">
    <rect width="216" height="190" rx="14" fill="#f4fbf8" stroke="#9fc7bf"/>
    <path d="M36 128 C82 42 138 48 182 112" fill="none" stroke="#075b55" stroke-width="5"/>
    <path d="M36 144 C86 192 150 190 184 124" fill="none" stroke="#f0a45d" stroke-width="5"/>
    <g fill="#b99df0"><circle cx="68" cy="76" r="8"/><circle cx="94" cy="94" r="8"/><circle cx="116" cy="72" r="8"/></g>
    <g fill="#f27d7d"><circle cx="140" cy="90" r="8"/><circle cx="166" cy="112" r="8"/><circle cx="150" cy="140" r="8"/></g>
    <g fill="#0f766e"><rect x="92" y="132" width="12" height="12" rx="2"/><rect x="118" y="150" width="12" height="12" rx="2"/><rect x="144" y="132" width="12" height="12" rx="2"/></g>
  </g>
  <text x="360" y="354" text-anchor="middle" font-family="Arial, sans-serif" font-size="18" font-weight="700" fill="#303942">Robust tail-class representations and calibrated boundaries</text>
</svg>