<svg xmlns="http://www.w3.org/2000/svg" viewBox="0 0 720 420" role="img" aria-labelledby="title desc">
  <title id="title">Trustworthy AI reasoning research visual</title>
  <desc id="desc">Evidence, uncertainty, and structured reasoning combine into reliable AI answers.</desc>
  <rect width="720" height="420" rx="18" fill="#f7faf9"/>
  <rect x="32" y="32" width="656" height="356" rx="16" fill="#ffffff" stroke="#c9d8d2"/>
  <text x="360" y="70" text-anchor="middle" font-family="Arial, sans-serif" font-size="24" font-weight="800" fill="#111318">Trustworthy AI Reasoning</text>
  <g transform="translate(76 118)" font-family="Arial, sans-serif">
    <rect x="0" y="70" width="122" height="72" rx="13" fill="#e0f2ee" stroke="#0f766e"/>
    <text x="61" y="100" text-anchor="middle" font-size="16" font-weight="800" fill="#075b55">question</text>
    <text x="61" y="123" text-anchor="middle" font-size="14" font-weight="700" fill="#303942">context</text>
    <path d="M122 106 H178" stroke="#075b55" stroke-width="4" marker-end="url(#arrow)"/>
    <g transform="translate(194 0)">
      <rect width="142" height="56" rx="11" fill="#ffffff" stroke="#9fc7bf"/>
      <rect y="78" width="142" height="56" rx="11" fill="#ffffff" stroke="#9fc7bf"/>
      <rect y="156" width="142" height="56" rx="11" fill="#ffffff" stroke="#9fc7bf"/>
      <text x="71" y="34" text-anchor="middle" font-size="16" font-weight="800" fill="#303942">evidence</text>
      <text x="71" y="112" text-anchor="middle" font-size="16" font-weight="800" fill="#303942">uncertainty</text>
      <text x="71" y="190" text-anchor="middle" font-size="16" font-weight="800" fill="#303942">structure</text>
    </g>
    <g transform="translate(374 24)">
      <circle cx="72" cy="82" r="72" fill="#f4fbf8" stroke="#9fc7bf" stroke-width="3"/>
      <path d="M34 84 C50 48 96 48 112 84 C94 118 52 118 34 84Z" fill="#ffffff" stroke="#0f766e" stroke-width="4"/>
      <circle cx="73" cy="84" r="18" fill="#0f766e"/>
      <path d="M26 30 L118 134 M118 30 L26 134" stroke="#7fb9ad" stroke-width="3" opacity="0.75"/>
      <text x="72" y="176" text-anchor="middle" font-size="15" font-weight="800" fill="#075b55">calibrated reasoning</text>
    </g>
    <path d="M338 28 C356 34 364 46 374 66 M338 106 H374 M338 184 C356 174 366 160 374 142" stroke="#075b55" stroke-width="4" fill="none"/>
    <rect x="548" y="66" width="110" height="82" rx="14" fill="#e0f2ee" stroke="#0f766e"/>
    <text x="603" y="101" text-anchor="middle" font-size="16" font-weight="800" fill="#075b55">reliable</text>
    <text x="603" y="124" text-anchor="middle" font-size="16" font-weight="800" fill="#075b55">answer</text>
  </g>
  <text x="360" y="360" text-anchor="middle" font-family="Arial, sans-serif" font-size="18" font-weight="700" fill="#303942">Structured uncertainty supports reliable reasoning</text>
  <defs><marker id="arrow" markerWidth="10" markerHeight="10" refX="8" refY="3" orient="auto"><path d="M0,0 L0,6 L9,3 z" fill="#075b55"/></marker></defs>
</svg>